<?xml version="1.0" encoding="UTF-8" standalone="no"?>
<!-- Created with Inkscape (http://www.inkscape.org/) -->

<svg
   xmlns:dc="http://purl.org/dc/elements/1.1/"
   xmlns:cc="http://creativecommons.org/ns#"
   xmlns:rdf="http://www.w3.org/1999/02/22-rdf-syntax-ns#"
   xmlns:svg="http://www.w3.org/2000/svg"
   xmlns="http://www.w3.org/2000/svg"
   xmlns:xlink="http://www.w3.org/1999/xlink"
   xmlns:sodipodi="http://sodipodi.sourceforge.net/DTD/sodipodi-0.dtd"
   xmlns:inkscape="http://www.inkscape.org/namespaces/inkscape"
   width="445.46713"
   height="148.48227"
   id="svg2"
   version="1.1"
   inkscape:version="0.47 r22583"
   sodipodi:docname="facebok.svg">
  <defs
     id="defs4">
    <linearGradient
       id="linearGradient3816">
      <stop
         style="stop-color:#274992;stop-opacity:1;"
         offset="0"
         id="stop3818" />
      <stop
         style="stop-color:#3b5998;stop-opacity:1;"
         offset="1"
         id="stop3820" />
    </linearGradient>
    <inkscape:perspective
       sodipodi:type="inkscape:persp3d"
       inkscape:vp_x="0 : 526.18109 : 1"
       inkscape:vp_y="0 : 1000 : 0"
       inkscape:vp_z="744.09448 : 526.18109 : 1"
       inkscape:persp3d-origin="372.04724 : 350.78739 : 1"
       id="perspective10" />
    <inkscape:perspective
       id="perspective2884"
       inkscape:persp3d-origin="0.5 : 0.33333333 : 1"
       inkscape:vp_z="1 : 0.5 : 1"
       inkscape:vp_y="0 : 1000 : 0"
       inkscape:vp_x="0 : 0.5 : 1"
       sodipodi:type="inkscape:persp3d" />
    <inkscape:perspective
       id="perspective2970"
       inkscape:persp3d-origin="133 : 33.333333 : 1"
       inkscape:vp_z="266 : 50 : 1"
       inkscape:vp_y="0 : 1000 : 0"
       inkscape:vp_x="0 : 50 : 1"
       sodipodi:type="inkscape:persp3d" />
    <linearGradient
       inkscape:collect="always"
       xlink:href="#linearGradient3816"
       id="linearGradient3822"
       x1="-90.913727"
       y1="186.66145"
       x2="-90.913727"
       y2="169.48886"
       gradientUnits="userSpaceOnUse" />
    <linearGradient
       inkscape:collect="always"
       xlink:href="#linearGradient3816"
       id="linearGradient3834"
       gradientUnits="userSpaceOnUse"
       x1="-90.913727"
       y1="186.66145"
       x2="-90.913727"
       y2="169.48886"
       gradientTransform="translate(-8.0812204,142.43151)" />
    <mask
       maskUnits="userSpaceOnUse"
       id="mask3836">
      <rect
         style="fill:#687fb1;fill-opacity:1;fill-rule:nonzero;stroke:none"
         id="rect3838"
         width="61.114231"
         height="16.667517"
         x="-121.72337"
         y="171.50916"
         rx="3.3425415"
         ry="2.3913043" />
    </mask>
    <inkscape:perspective
       id="perspective3928"
       inkscape:persp3d-origin="133 : 33.333333 : 1"
       inkscape:vp_z="266 : 50 : 1"
       inkscape:vp_y="0 : 1000 : 0"
       inkscape:vp_x="0 : 50 : 1"
       sodipodi:type="inkscape:persp3d" />
    <linearGradient
       inkscape:collect="always"
       xlink:href="#linearGradient3816"
       id="linearGradient3951"
       gradientUnits="userSpaceOnUse"
       gradientTransform="translate(-8.0812204,142.43151)"
       x1="-90.913727"
       y1="186.66145"
       x2="-90.913727"
       y2="169.48886" />
    <linearGradient
       inkscape:collect="always"
       xlink:href="#linearGradient3816"
       id="linearGradient2834"
       gradientUnits="userSpaceOnUse"
       gradientTransform="matrix(1.7871446,0,0,1.7871446,78.633323,-13.763956)"
       x1="-90.913727"
       y1="186.66145"
       x2="-90.913727"
       y2="169.48886" />
  </defs>
  <sodipodi:namedview
     id="base"
     pagecolor="#ffffff"
     bordercolor="#666666"
     borderopacity="1.0"
     inkscape:pageopacity="0.0"
     inkscape:pageshadow="2"
     inkscape:zoom="1.979899"
     inkscape:cx="244.30516"
     inkscape:cy="77.34221"
     inkscape:document-units="px"
     inkscape:current-layer="layer1"
     showgrid="false"
     inkscape:window-width="1680"
     inkscape:window-height="959"
     inkscape:window-x="0"
     inkscape:window-y="40"
     inkscape:window-maximized="1" />
  <metadata
     id="metadata7">
    <rdf:RDF>
      <cc:Work
         rdf:about="">
        <dc:format>image/svg+xml</dc:format>
        <dc:type
           rdf:resource="http://purl.org/dc/dcmitype/StillImage" />
        <dc:title></dc:title>
      </cc:Work>
    </rdf:RDF>
  </metadata>
  <g
     inkscape:label="Layer 1"
     inkscape:groupmode="layer"
     id="layer1"
     transform="translate(151.01273,-193.23251)">
    <rect
       style="fill:#ededed;fill-opacity:1;fill-rule:nonzero;stroke:#b6b6b6;stroke-opacity:1"
       id="rect3945"
       width="444.46713"
       height="147.48227"
       x="-150.51273"
       y="193.73251"
       inkscape:export-xdpi="90"
       inkscape:export-ydpi="90"
       inkscape:export-filename="/home/mattl/Desktop/no-facebook-me.png" />
    <rect
       ry="8.9357233"
       rx="8.9357233"
       y="214.21764"
       x="-137.09868"
       height="106.51203"
       width="106.51203"
       id="rect3832"
       style="fill:url(#linearGradient2834);fill-opacity:1;fill-rule:nonzero;stroke:#0c0068;stroke-width:3.57428908;stroke-miterlimit:4;stroke-opacity:1;stroke-dasharray:none"
       inkscape:export-filename="/home/mattl/Desktop/no-facebook.png"
       inkscape:export-xdpi="90"
       inkscape:export-ydpi="90" />
    <path
       style="fill:#ffffff"
       d="M -62.71658,315.20367 H -81.146818 V 270.5915 h -9.210491 v -15.37277 h 9.210491 v -9.23003 c 0,-12.54161 5.198325,-19.99909 19.97132,-19.99909 h 12.299854 v 15.37586 h -7.687924 c -5.751798,0 -6.130379,2.14804 -6.130379,6.15816 l -0.02263,7.6951 h 13.927352 l -1.629554,15.37277 H -62.71658 v 44.61217 z"
       id="path3004"
       inkscape:export-filename="/home/mattl/Desktop/no-facebook.png"
       inkscape:export-xdpi="90"
       inkscape:export-ydpi="90" />
    <g
       style="font-size:35.36691284px;font-style:normal;font-variant:normal;font-weight:normal;font-stretch:condensed;text-align:start;line-height:125%;writing-mode:lr-tb;text-anchor:start;fill:#455984;fill-opacity:1;stroke:none;font-family:Futura BdCn BT;-inkscape-font-specification:Futura BdCn BT Condensed"
       id="text3840">
      <path
         d="m -2.7090141,243.40442 0,-11.84654 -5.8369222,-13.3662 5.3015831,0 1.6578241,4.55901 c 0.3108362,0.81742 0.59289622,1.63482 0.846181,2.4522 0.25327206,0.80591 0.49503783,1.62906 0.72529802,2.46947 0.20722071,-0.93251 0.43171749,-1.80172 0.67349101,-2.60762 0.24175801,-0.80587 0.48928007,-1.53116 0.74256707,-2.17589 l 1.830514,-4.69717 4.9216651,0 -5.8714601,13.3662 0,11.84654 -4.9907411,0"
         style=""
         id="path3985" />
      <path
         d="m 12.988507,239.62251 c 0.828903,0 1.467856,-0.4087 1.916859,-1.2261 0.460496,-0.82891 0.690749,-2.0032 0.69076,-3.52288 -1.1e-5,-1.50815 -0.230264,-2.67092 -0.69076,-3.48834 -0.449003,-0.82889 -1.087956,-1.24335 -1.916859,-1.24336 -0.828919,1e-5 -1.467872,0.40871 -1.916859,1.2261 -0.449,0.81741 -0.673497,1.98594 -0.673491,3.5056 -6e-6,1.53119 0.224491,2.70549 0.673491,3.52288 0.448987,0.8174 1.08794,1.2261 1.916859,1.2261 m 7.063021,-4.71444 c -1.5e-5,2.69397 -0.644724,4.83532 -1.934128,6.42407 -1.277918,1.58875 -2.987547,2.38312 -5.128893,2.38312 -2.152875,0 -3.8682603,-0.78862 -5.1461623,-2.36585 -1.2663948,-1.58875 -1.8995909,-3.73586 -1.8995901,-6.44134 -8e-7,-2.68244 0.6331953,-4.81228 1.8995901,-6.38953 1.277902,-1.57722 2.9932873,-2.36584 5.1461623,-2.36585 2.152859,1e-5 3.868244,0.79439 5.146162,2.38312 1.277892,1.57725 1.916844,3.70133 1.916859,6.37226"
         style=""
         id="path3987" />
      <path
         d="m 34.816523,226.46353 0,8.77265 c -1.4e-5,3.38473 -0.449008,5.64697 -1.346982,6.78672 -0.886487,1.12824 -2.498259,1.69236 -4.83532,1.69236 -2.34859,0 -3.97763,-0.56412 -4.887127,-1.69236 -0.89799,-1.12824 -1.346984,-3.39048 -1.346982,-6.78672 l 0,-8.77265 4.559016,0 0,10.89674 c -6e-6,0.88648 0.120877,1.48514 0.362649,1.79597 0.241759,0.31085 0.667727,0.46627 1.277906,0.46627 0.610163,0 1.036131,-0.16118 1.277906,-0.48353 0.253269,-0.32235 0.379908,-0.91526 0.379918,-1.77871 l 0,-10.89674 4.559016,0"
         style=""
         id="path3989" />
      <path
         d="m 56.281889,226.46353 1.38152,7.27025 c 0.08057,0.49505 0.172677,1.1743 0.276304,2.03774 0.103601,0.86346 0.212971,1.84779 0.328111,2.953 0.126626,-1.03613 0.247508,-2.00895 0.362649,-2.91846 0.126625,-0.92101 0.230239,-1.62903 0.310842,-2.12409 l 1.312444,-7.21844 4.524478,0 -4.455402,16.94089 -4.040946,0 -1.226099,-7.02848 c -0.05757,-0.29933 -0.143919,-0.94979 -0.259035,-1.9514 -0.103624,-1.00159 -0.218751,-2.2392 -0.34538,-3.71284 l -0.08635,0.82892 c -0.276314,2.93573 -0.437491,4.54751 -0.483532,4.83532 l -1.243368,7.02848 -4.023677,0 -4.455402,-16.94089 4.524478,0 1.277906,7.21844 c 0.03453,0.21875 0.178441,1.27792 0.431725,3.1775 l 0.241766,1.86505 c 0.08058,-0.96706 0.172684,-1.87656 0.276304,-2.7285 0.11512,-0.86344 0.236003,-1.61177 0.362649,-2.24497 l 1.329713,-7.28752 3.678297,0"
         style=""
         id="path3991" />
      <path
         d="m 72.601098,239.62251 c 0.828903,0 1.467855,-0.4087 1.916859,-1.2261 0.460496,-0.82891 0.690749,-2.0032 0.69076,-3.52288 -1.1e-5,-1.50815 -0.230264,-2.67092 -0.69076,-3.48834 -0.449004,-0.82889 -1.087956,-1.24335 -1.916859,-1.24336 -0.828919,1e-5 -1.467872,0.40871 -1.916859,1.2261 -0.449,0.81741 -0.673497,1.98594 -0.673491,3.5056 -6e-6,1.53119 0.224491,2.70549 0.673491,3.52288 0.448987,0.8174 1.08794,1.2261 1.916859,1.2261 m 7.063021,-4.71444 c -1.5e-5,2.69397 -0.644724,4.83532 -1.934128,6.42407 -1.277918,1.58875 -2.987547,2.38312 -5.128893,2.38312 -2.152875,0 -3.86826,-0.78862 -5.146163,-2.36585 -1.266394,-1.58875 -1.89959,-3.73586 -1.89959,-6.44134 0,-2.68244 0.633196,-4.81228 1.89959,-6.38953 1.277903,-1.57722 2.993288,-2.36584 5.146163,-2.36585 2.152858,1e-5 3.868244,0.79439 5.146162,2.38312 1.277891,1.57725 1.916844,3.70133 1.916859,6.37226"
         style=""
         id="path3993" />
      <path
         d="m 89.973712,243.40442 0,-10.25779 c -1e-5,-0.96705 -0.115136,-1.62903 -0.34538,-1.98593 -0.230263,-0.3684 -0.621693,-0.5526 -1.174292,-0.55261 -0.598666,1e-5 -1.030391,0.213 -1.295175,0.63895 -0.264798,0.42598 -0.397194,1.12826 -0.397187,2.10682 l 0,10.05056 -4.679899,0 0,-16.94089 4.351788,0 0,2.62489 c 0.610164,-0.94403 1.295167,-1.6463 2.055011,-2.10682 0.77134,-0.46049 1.640545,-0.69074 2.607619,-0.69076 1.323944,2e-5 2.244957,0.37418 2.76304,1.12248 0.518056,0.74834 0.777091,2.22196 0.777105,4.42087 l 0,11.57023 -4.66263,0"
         style=""
         id="path3995" />
      <path
         d="m 97.727494,218.60613 2.832116,0 0,9.61884 -2.832116,0 0,-9.61884"
         style=""
         id="path3997" />
      <path
         d="m 104.23791,243.40442 0,-13.29713 -1.84779,0 0,-3.64376 1.84779,0 0,-4.88713 4.66263,0 0,4.88713 1.84778,0 0,3.64376 -1.84778,0 0,13.29713 -4.66263,0"
         style=""
         id="path3999" />
      <path
         d="m 127.81009,216.49932 0,3.97187 c -0.0691,2e-5 -0.14391,2e-5 -0.22449,0 -0.0806,-0.0115 -0.18421,-0.0173 -0.31085,-0.0173 -0.58715,2e-5 -0.99009,0.1612 -1.20883,0.48353 -0.20723,0.32238 -0.31084,1.20885 -0.31084,2.65943 l 0,2.86665 2.05501,0 0,3.57468 -2.05501,0 0,13.36621 -4.66263,0 0,-13.36621 -1.69236,0 0,-3.57468 1.69236,0 0,-4.48994 c 0,-1.13973 0.0691,-1.98591 0.20723,-2.53854 0.13815,-0.5641 0.37416,-1.0649 0.70803,-1.50241 0.42596,-0.52955 0.97282,-0.9325 1.64055,-1.20883 0.67925,-0.27627 1.46786,-0.41443 2.36586,-0.41445 0.21873,2e-5 0.47201,0.0173 0.75983,0.0518 0.29932,0.0231 0.6447,0.0691 1.03614,0.13816"
         style=""
         id="path4001" />
      <path
         d="m 129.6406,221.93905 c 0,-0.77133 0.25328,-1.41603 0.75984,-1.93413 0.51807,-0.52956 1.16277,-0.79435 1.93413,-0.79437 0.7368,2e-5 1.36424,0.26481 1.88232,0.79437 0.52957,0.52961 0.79436,1.17432 0.79437,1.93413 -1e-5,0.73683 -0.25904,1.36427 -0.7771,1.88232 -0.51808,0.50658 -1.15128,0.75986 -1.89959,0.75984 -0.77136,2e-5 -1.41606,-0.2475 -1.93413,-0.74257 -0.50656,-0.50654 -0.75984,-1.13973 -0.75984,-1.89959 m 0.34538,21.46537 0,-16.94089 4.6799,0 0,16.94089 -4.6799,0"
         style=""
         id="path4003" />
      <path
         d="m 146.06343,243.40442 0,-10.25779 c -1e-5,-0.96705 -0.11514,-1.62903 -0.34538,-1.98593 -0.23027,-0.3684 -0.6217,-0.5526 -1.1743,-0.55261 -0.59866,1e-5 -1.03039,0.213 -1.29517,0.63895 -0.2648,0.42598 -0.39719,1.12826 -0.39719,2.10682 l 0,10.05056 -4.6799,0 0,-16.94089 4.35179,0 0,2.62489 c 0.61017,-0.94403 1.29517,-1.6463 2.05501,-2.10682 0.77134,-0.46049 1.64055,-0.69074 2.60762,-0.69076 1.32395,2e-5 2.24496,0.37418 2.76304,1.12248 0.51806,0.74834 0.77709,2.22196 0.77711,4.42087 l 0,11.57023 -4.66263,0"
         style=""
         id="path4005" />
      <path
         d="m 162.05452,234.6663 c -1e-5,-1.62327 -0.16694,-2.79181 -0.5008,-3.5056 -0.32236,-0.72529 -0.85195,-1.08794 -1.58875,-1.08795 -0.67925,10e-6 -1.1743,0.36266 -1.48513,1.08795 -0.29934,0.72531 -0.449,1.90535 -0.449,3.54014 0,1.6233 0.16693,2.83788 0.5008,3.64376 0.34538,0.80589 0.86345,1.20884 1.55421,1.20883 0.70227,1e-5 1.20307,-0.3684 1.50241,-1.10521 0.31083,-0.74832 0.46625,-2.00896 0.46626,-3.78192 m 4.52448,8.73812 -4.52448,0 0,-2.46947 c -0.449,0.94404 -0.9901,1.65207 -1.62329,2.12409 -0.62169,0.46051 -1.34123,0.69076 -2.15862,0.69076 -1.55421,0 -2.75729,-0.75984 -3.60922,-2.27951 -0.85194,-1.53118 -1.27791,-3.70132 -1.27791,-6.51041 0,-2.77454 0.43748,-4.91014 1.31245,-6.4068 0.87496,-1.50814 2.11257,-2.26222 3.71283,-2.26224 0.72529,2e-5 1.38727,0.213 1.98594,0.63895 0.61016,0.42599 1.16277,1.0707 1.65782,1.93413 l 0,-12.22645 4.52448,0 0,26.76695"
         style=""
         id="path4007" />
      <path
         d="m 177.85566,243.40442 0,-16.94089 4.31725,0 0,2.62489 c 0.58714,-0.94403 1.24912,-1.6463 1.98593,-2.10682 0.73681,-0.46049 1.55996,-0.69074 2.46947,-0.69076 0.921,2e-5 1.66933,0.23603 2.24497,0.70803 0.57562,0.47203 0.96129,1.16855 1.15702,2.08955 0.65621,-0.95554 1.34697,-1.65781 2.07228,-2.10682 0.72528,-0.46049 1.50815,-0.69074 2.34859,-0.69076 1.23183,2e-5 2.08953,0.42598 2.57308,1.27791 0.49502,0.85195 0.74254,2.60763 0.74257,5.26704 l 0,10.56863 -4.59356,0 0,-10.25779 c -2e-5,-0.95554 -0.10363,-1.61752 -0.31084,-1.98593 -0.20724,-0.3684 -0.56414,-0.5526 -1.07068,-0.55261 -0.61018,1e-5 -1.04767,0.20148 -1.31244,0.60441 -0.2533,0.40296 -0.37993,1.11674 -0.37992,2.14136 l 0,10.05056 -4.55902,0 0,-10.25779 c -1e-5,-0.93251 -0.10938,-1.59449 -0.32811,-1.98593 -0.20723,-0.39142 -0.55837,-0.58714 -1.05341,-0.58715 -0.62169,10e-6 -1.07068,0.213 -1.34698,0.63895 -0.2648,0.42599 -0.39719,1.13977 -0.39719,2.14136 l 0,10.05056 -4.55901,0"
         style=""
         id="path4009" />
      <path
         d="m 209.73423,233.49201 c -0.0345,-1.23184 -0.25904,-2.14134 -0.67349,-2.7285 -0.40295,-0.59864 -1.01312,-0.89797 -1.83051,-0.89799 -0.8059,2e-5 -1.42183,0.31086 -1.84779,0.93253 -0.42597,0.62169 -0.63896,1.52544 -0.63895,2.71123 l 4.99074,-0.0173 m -4.99074,2.69397 0,0.13815 c -1e-5,1.2664 0.22449,2.23922 0.67349,2.91846 0.44899,0.67925 1.08794,1.01887 1.91686,1.01887 0.52957,0 0.97857,-0.16117 1.34698,-0.48353 0.37991,-0.32235 0.68499,-0.81164 0.91526,-1.46787 l 4.02368,0 c -0.36842,1.69237 -1.13402,3.01632 -2.29678,3.97187 -1.15128,0.95556 -2.56734,1.43333 -4.24818,1.43333 -2.10682,0 -3.78191,-0.78862 -5.02528,-2.36585 -1.24336,-1.57723 -1.86505,-3.70708 -1.86505,-6.38953 0,-2.71698 0.62169,-4.86409 1.86505,-6.44134 1.24337,-1.57722 2.91846,-2.36584 5.02528,-2.36585 2.23345,1e-5 3.92006,0.77712 5.05982,2.33131 1.13974,1.55423 1.70962,3.851 1.70963,6.89033 l 0,0.81165 -9.10076,0"
         style=""
         id="path4011" />
      <path
         d="m 230.16345,239.62251 c 0.82891,0 1.46786,-0.4087 1.91686,-1.2261 0.4605,-0.82891 0.69075,-2.0032 0.69076,-3.52288 -1e-5,-1.50815 -0.23026,-2.67092 -0.69076,-3.48834 -0.449,-0.82889 -1.08795,-1.24335 -1.91686,-1.24336 -0.82892,1e-5 -1.46787,0.40871 -1.91686,1.2261 -0.449,0.81741 -0.67349,1.98594 -0.67349,3.5056 0,1.53119 0.22449,2.70549 0.67349,3.52288 0.44899,0.8174 1.08794,1.2261 1.91686,1.2261 m 7.06302,-4.71444 c -1e-5,2.69397 -0.64472,4.83532 -1.93412,6.42407 -1.27792,1.58875 -2.98755,2.38312 -5.1289,2.38312 -2.15287,0 -3.86826,-0.78862 -5.14616,-2.36585 -1.26639,-1.58875 -1.89959,-3.73586 -1.89959,-6.44134 0,-2.68244 0.6332,-4.81228 1.89959,-6.38953 1.2779,-1.57722 2.99329,-2.36584 5.14616,-2.36585 2.15286,1e-5 3.86825,0.79439 5.14616,2.38312 1.2779,1.57725 1.91685,3.70133 1.91686,6.37226"
         style=""
         id="path4013" />
      <path
         d="m 247.53607,243.40442 0,-10.25779 c -1e-5,-0.96705 -0.11514,-1.62903 -0.34538,-1.98593 -0.23027,-0.3684 -0.6217,-0.5526 -1.1743,-0.55261 -0.59866,1e-5 -1.03039,0.213 -1.29517,0.63895 -0.2648,0.42598 -0.39719,1.12826 -0.39719,2.10682 l 0,10.05056 -4.6799,0 0,-16.94089 4.35179,0 0,2.62489 c 0.61017,-0.94403 1.29517,-1.6463 2.05501,-2.10682 0.77134,-0.46049 1.64055,-0.69074 2.60762,-0.69076 1.32395,2e-5 2.24496,0.37418 2.76304,1.12248 0.51806,0.74834 0.77709,2.22196 0.77711,4.42087 l 0,11.57023 -4.66263,0"
         style=""
         id="path4015" />
    </g>
    <g
       style="font-size:81.99658203px;font-style:normal;font-variant:normal;font-weight:normal;font-stretch:condensed;text-align:start;line-height:125%;writing-mode:lr-tb;text-anchor:start;fill:#455984;fill-opacity:1;stroke:none;font-family:Futura BdCn BT;-inkscape-font-specification:Futura BdCn BT Condensed"
       id="text3961">
      <path
         d="m -8.5459368,314.354 0,-58.45459 25.2235578,0 0,10.8101 -13.9330128,0 0,12.13133 12.7318908,0 0,10.77005 -12.7318908,0 0,24.74311 -11.290545,0"
         style=""
         id="path4018" />
      <path
         d="m 40.299684,294.09508 c -2.3e-5,-3.57665 -0.427088,-6.23246 -1.281196,-7.96744 -0.827461,-1.73492 -2.122002,-2.6024 -3.883627,-2.60243 -1.574821,3e-5 -2.722558,0.84082 -3.443216,2.52236 -0.693995,1.6549 -1.040986,4.3641 -1.040973,8.12759 -1.3e-5,3.73684 0.387015,6.53945 1.161085,8.40785 0.800733,1.84173 2.001853,2.76259 3.603365,2.76258 1.708243,10e-6 2.949401,-0.89416 3.723478,-2.68251 0.774034,-1.78832 1.161061,-4.64432 1.161084,-8.568 m 10.169498,20.25892 -10.169498,0 0,-5.80542 c -1.14776,2.16202 -2.468993,3.79021 -3.963702,4.88456 -1.468055,1.09436 -3.096241,1.64154 -4.884562,1.64154 -3.736833,0 -6.606177,-1.73496 -8.608039,-5.20486 -1.975182,-3.4699 -2.96277,-8.50126 -2.962767,-15.0941 -3e-6,-6.40596 1.014277,-11.35724 3.042841,-14.85387 2.055246,-3.49657 4.924589,-5.24486 8.60804,-5.2449 1.734938,4e-5 3.309741,0.52052 4.724413,1.56146 1.441325,1.041 2.78925,2.65584 4.043776,4.84452 l 0,-6.00561 10.169498,0 0,39.27668"
         style=""
         id="path4020" />
      <path
         d="m 79.175993,286.24775 c -0.854154,-0.64057 -1.681593,-1.10767 -2.482318,-1.40131 -0.800769,-0.29357 -1.601516,-0.44038 -2.402244,-0.44041 -2.081962,3e-5 -3.736839,0.90755 -4.964636,2.72255 -1.227827,1.78836 -1.841733,4.21729 -1.84172,7.2868 -1.3e-5,3.2297 0.613893,5.72536 1.84172,7.48699 1.254489,1.73497 3.016132,2.60244 5.284936,2.60244 0.85411,0 1.654857,-0.16014 2.402243,-0.48045 0.747342,-0.34698 1.468014,-0.86747 2.162019,-1.56146 l 0,10.32965 c -1.12107,0.77405 -2.308845,1.34792 -3.563328,1.7216 -1.227833,0.37369 -2.522374,0.56053 -3.883627,0.56053 -4.590967,0 -8.247712,-1.82838 -10.970246,-5.48513 -2.695854,-3.65674 -4.043778,-8.63471 -4.043776,-14.93394 -2e-6,-6.21912 1.361268,-11.15706 4.083814,-14.81384 2.722534,-3.65671 6.365933,-5.48508 10.930208,-5.48512 1.30787,4e-5 2.57572,0.1335 3.803553,0.40037 1.227791,0.24027 2.442257,0.61395 3.643402,1.12105 l 0,10.36968"
         style=""
         id="path4022" />
      <path
         d="m 104.71986,291.37254 c -0.0801,-2.85597 -0.60059,-4.96461 -1.56146,-6.32591 -0.93423,-1.38793 -2.34888,-2.08191 -4.243967,-2.08194 -1.868428,3e-5 -3.296427,0.7207 -4.284001,2.16202 -0.987602,1.44137 -1.481396,3.53666 -1.481383,6.28587 l 11.570811,-0.04 m -11.570811,6.24583 0,0.3203 c -1.3e-5,2.93609 0.520473,5.19153 1.561458,6.76632 1.040957,1.57481 2.522339,2.36222 4.444151,2.36221 1.227792,10e-6 2.268762,-0.37368 3.122912,-1.12105 0.8808,-0.74735 1.58813,-1.88175 2.12199,-3.40318 l 9.32871,0 c -0.85416,3.92368 -2.62915,6.99321 -5.32497,9.2086 -2.66919,2.21541 -5.95225,3.32311 -9.849203,3.32311 -4.884575,0 -8.768199,-1.82838 -11.650882,-5.48513 -2.882695,-3.65674 -4.32404,-8.59468 -4.324038,-14.81383 -2e-6,-6.29919 1.441343,-11.27717 4.324038,-14.93395 2.882683,-3.65671 6.766307,-5.48508 11.650882,-5.48512 5.178143,4e-5 9.088463,1.80172 11.730953,5.40505 2.64244,3.60339 3.96367,8.92836 3.9637,15.97492 l 0,1.88175 -21.099701,0"
         style=""
         id="path4024" />
      <path
         d="m 135.10823,283.44514 c -1.70828,3e-5 -2.96278,0.85416 -3.76351,2.56239 -0.77407,1.6816 -1.1611,4.37744 -1.16109,8.08755 -1e-5,4.03045 0.37367,6.92649 1.12105,8.68812 0.74735,1.76165 1.96182,2.64247 3.6434,2.64247 1.60148,0 2.77591,-0.92086 3.5233,-2.76259 0.77403,-1.86839 1.16106,-4.77777 1.16108,-8.72815 -2e-5,-3.68341 -0.36036,-6.35257 -1.08101,-8.00748 -0.7207,-1.65484 -1.86843,-2.48228 -3.44322,-2.48231 m -15.25424,30.90886 0,-62.05796 10.40972,0 0,28.34648 c 1.17441,-2.00184 2.45561,-3.49656 3.84359,-4.48419 1.41463,-0.98755 2.97609,-1.48134 4.68437,-1.48138 3.79018,4e-5 6.65953,1.77503 8.60804,5.32497 1.97515,3.55001 2.96274,8.74152 2.96277,15.57455 -3e-5,6.13908 -1.01431,10.94356 -3.04284,14.41346 -2.0019,3.44321 -4.75113,5.16482 -8.2477,5.16482 -1.92182,0 -3.63008,-0.54718 -5.12479,-1.64153 -1.46805,-1.12105 -2.69587,-2.74923 -3.68344,-4.88456 l 0,5.72534 -10.40972,0"
         style=""
         id="path4026" />
      <path
         d="m 171.14188,305.58581 c 1.92178,1e-5 3.40316,-0.94754 4.44415,-2.84265 1.06764,-1.92178 1.60147,-4.64432 1.6015,-8.16763 -3e-5,-3.49657 -0.53386,-6.19242 -1.6015,-8.08755 -1.04099,-1.92177 -2.52237,-2.88266 -4.44415,-2.88269 -1.92181,3e-5 -3.40319,0.94758 -4.44415,2.84265 -1.04098,1.89513 -1.56147,4.60432 -1.56146,8.12759 -1e-5,3.55 0.52048,6.27254 1.56146,8.16763 1.04096,1.89511 2.52234,2.84266 4.44415,2.84265 m 16.37529,-10.9302 c -3e-5,6.24584 -1.49476,11.21047 -4.48418,14.89391 -2.9628,3.68344 -6.9265,5.52516 -11.89111,5.52516 -4.99134,0 -8.96838,-1.82838 -11.93114,-5.48513 -2.93608,-3.68343 -4.40412,-8.66141 -4.40412,-14.93394 0,-6.21912 1.46804,-11.15706 4.40412,-14.81384 2.96276,-3.65671 6.9398,-5.48508 11.93114,-5.48512 4.99131,4e-5 8.96835,1.84176 11.93114,5.52516 2.96274,3.65678 4.44412,8.58137 4.44415,14.7738"
         style=""
         id="path4028" />
      <path
         d="m 207.49584,305.58581 c 1.92177,1e-5 3.40316,-0.94754 4.44415,-2.84265 1.06764,-1.92178 1.60147,-4.64432 1.6015,-8.16763 -3e-5,-3.49657 -0.53386,-6.19242 -1.6015,-8.08755 -1.04099,-1.92177 -2.52238,-2.88266 -4.44415,-2.88269 -1.92181,3e-5 -3.40319,0.94758 -4.44415,2.84265 -1.04099,1.89513 -1.56147,4.60432 -1.56146,8.12759 -1e-5,3.55 0.52047,6.27254 1.56146,8.16763 1.04096,1.89511 2.52234,2.84266 4.44415,2.84265 m 16.37529,-10.9302 c -3e-5,6.24584 -1.49476,11.21047 -4.48419,14.89391 -2.96279,3.68344 -6.92649,5.52516 -11.8911,5.52516 -4.99134,0 -8.96839,-1.82838 -11.93114,-5.48513 -2.93608,-3.68343 -4.40412,-8.66141 -4.40412,-14.93394 0,-6.21912 1.46804,-11.15706 4.40412,-14.81384 2.96275,-3.65671 6.9398,-5.48508 11.93114,-5.48512 4.9913,4e-5 8.96835,1.84176 11.93114,5.52516 2.96274,3.65678 4.44412,8.58137 4.44415,14.7738"
         style=""
         id="path4030" />
      <path
         d="m 240.48666,291.21239 c 0.2669,-0.72065 0.86746,-2.05523 1.80168,-4.00374 0.21351,-0.42704 0.37366,-0.74734 0.48045,-0.9609 l 5.5652,-11.17043 12.2114,0 -9.80916,16.33526 10.56987,22.94142 -12.05125,0 -8.76819,-21.42 0,21.42 -10.85014,0 0,-62.05796 10.85014,0 0,38.91635"
         style=""
         id="path4032" />
    </g>
    <g
       style="font-size:35.36691284px;font-style:normal;font-variant:normal;font-weight:normal;font-stretch:condensed;text-align:start;line-height:125%;writing-mode:lr-tb;text-anchor:start;fill:#ffffff;fill-opacity:1;stroke:none;font-family:Futura BdCn BT;-inkscape-font-specification:Futura BdCn BT Condensed"
       id="text2836">
      <path
         d="m -118.76389,248.96025 0,-10.25779 c -1e-5,-0.96705 -0.11513,-1.62903 -0.34538,-1.98593 -0.23026,-0.36839 -0.62169,-0.5526 -1.17429,-0.55261 -0.59867,1e-5 -1.03039,0.213 -1.29517,0.63895 -0.2648,0.42598 -0.3972,1.12826 -0.39719,2.10682 l 0,10.05056 -4.6799,0 0,-16.94089 4.35179,0 0,2.62489 c 0.61016,-0.94402 1.29517,-1.6463 2.05501,-2.10682 0.77134,-0.46049 1.64054,-0.69074 2.60762,-0.69076 1.32394,2e-5 2.24495,0.37418 2.76304,1.12249 0.51805,0.74834 0.77709,2.22195 0.7771,4.42086 l 0,11.57023 -4.66263,0"
         style=""
         id="path4040" />
      <path
         d="m -104.63785,245.17834 c 0.82891,0 1.46786,-0.4087 1.91686,-1.2261 0.4605,-0.82891 0.69075,-2.0032 0.69076,-3.52288 -1e-5,-1.50814 -0.23026,-2.67092 -0.69076,-3.48833 -0.449,-0.8289 -1.08795,-1.24336 -1.91686,-1.24337 -0.82891,10e-6 -1.46787,0.40871 -1.91685,1.2261 -0.449,0.81741 -0.6735,1.98594 -0.6735,3.5056 0,1.5312 0.2245,2.70549 0.6735,3.52288 0.44898,0.8174 1.08794,1.2261 1.91685,1.2261 m 7.063026,-4.71444 c -1.5e-5,2.69397 -0.644723,4.83533 -1.934128,6.42407 -1.277918,1.58875 -2.987548,2.38312 -5.128898,2.38312 -2.15287,0 -3.86826,-0.78861 -5.14616,-2.36585 -1.26639,-1.58874 -1.89959,-3.73585 -1.89959,-6.44134 0,-2.68244 0.6332,-4.81228 1.89959,-6.38953 1.2779,-1.57722 2.99329,-2.36583 5.14616,-2.36585 2.15286,2e-5 3.86825,0.79439 5.146167,2.38312 1.277892,1.57725 1.916844,3.70134 1.916859,6.37226"
         style=""
         id="path4042" />
      <path
         d="m -94.621824,248.96025 0,-13.29713 -1.847783,0 0,-3.64376 1.847783,0 0,-4.88713 4.66263,0 0,4.88713 1.847783,0 0,3.64376 -1.847783,0 0,13.29713 -4.66263,0"
         style=""
         id="path4044" />
    </g>
    <g
       style="font-size:35.36691284px;font-style:normal;font-variant:normal;font-weight:normal;font-stretch:condensed;text-align:start;line-height:125%;writing-mode:lr-tb;text-anchor:start;fill:#ffffff;fill-opacity:1;stroke:none;font-family:Futura BdCn BT;-inkscape-font-specification:Futura BdCn BT Condensed"
       id="text2840">
      <path
         d="m -56.828503,290.16198 2.832116,0 0,9.61883 -2.832116,0 0,-9.61883"
         style=""
         id="path4035" />
      <path
         d="m -42.788805,306.22215 c -10e-6,-1.62327 -0.166943,-2.79181 -0.500801,-3.50561 -0.322364,-0.72528 -0.851946,-1.08793 -1.588748,-1.08794 -0.679255,10e-6 -1.174299,0.36266 -1.485134,1.08794 -0.299335,0.72531 -0.449,1.90536 -0.448994,3.54015 -6e-6,1.62329 0.166928,2.83788 0.500801,3.64376 0.345373,0.80589 0.863443,1.20883 1.55421,1.20883 0.702264,0 1.203065,-0.3684 1.502403,-1.10522 0.310832,-0.74831 0.466253,-2.00895 0.466263,-3.78191 m 4.524478,8.73812 -4.524478,0 0,-2.46947 c -0.449003,0.94404 -0.990098,1.65207 -1.623286,2.12409 -0.621692,0.4605 -1.341233,0.69076 -2.158625,0.69076 -1.554215,0 -2.757287,-0.75984 -3.609221,-2.27951 -0.851939,-1.53118 -1.277907,-3.70132 -1.277906,-6.51042 -1e-6,-2.77454 0.437479,-4.91013 1.312444,-6.40679 0.874959,-1.50815 2.11257,-2.26223 3.712835,-2.26224 0.725291,10e-6 1.387269,0.213 1.985935,0.63895 0.610162,0.42598 1.16277,1.07069 1.657824,1.93413 l 0,-12.22645 4.524478,0 0,26.76695"
         style=""
         id="path4037" />
    </g>
  </g>
</svg>
